<?xml version="1.0" encoding="UTF-8" standalone="no"?>
<!DOCTYPE svg PUBLIC "-//W3C//DTD SVG 1.1//EN" "http://www.w3.org/Graphics/SVG/1.1/DTD/svg11.dtd">
<svg xmlns="http://www.w3.org/2000/svg" version="1.1" viewBox="0.00 0.00 470.00 450.00">
<g stroke-width="2.00" fill="none" stroke-linecap="butt">
<path stroke="#868685" vector-effect="non-scaling-stroke" d="
  M 235.73 354.57
  Q 236.23 354.54 236.79 354.29
  Q 249.70 348.39 265.52 342.02
  C 276.76 337.49 286.91 332.83 296.12 325.90
  Q 306.07 318.40 311.50 306.96
  Q 324.33 279.94 310.88 253.89
  C 308.49 249.25 306.62 244.61 303.63 240.26
  Q 294.65 227.21 287.05 215.51
  Q 279.20 203.42 273.16 188.84
  C 265.44 170.21 263.22 149.73 267.77 130.45
  Q 268.82 126.02 270.05 121.78
  C 275.94 101.45 289.11 83.61 306.01 71.55
  Q 319.26 62.08 335.80 55.22
  Q 352.66 48.22 368.80 41.24
  Q 377.56 37.45 385.91 31.94
  Q 387.20 31.09 385.81 30.41
  Q 373.67 24.46 360.00 21.85
  C 356.59 21.20 353.18 21.13 349.85 20.52
  C 344.59 19.55 338.77 19.62 333.27 19.60
  Q 284.67 19.40 233.27 19.53
  A 0.27 0.27 0.0 0 0 233.00 19.80
  L 233.01 355.28
  A 0.60 0.59 -22.2 0 0 234.02 355.70
  L 234.72 355.02
  Q 235.14 354.61 235.73 354.57"
/>
<path stroke="#868685" vector-effect="non-scaling-stroke" d="
  M 58.14 66.97
  Q 67.40 54.62 81.42 47.33
  Q 94.37 40.60 108.66 38.65
  Q 112.70 38.09 116.69 37.50
  Q 120.39 36.96 123.86 36.91
  C 156.05 36.48 188.30 36.75 220.50 36.81
  Q 221.07 36.81 221.07 36.23
  L 221.06 20.20
  A 0.35 0.35 0.0 0 0 220.71 19.85
  Q 171.24 19.83 121.75 19.82
  Q 109.88 19.82 97.39 21.77
  Q 87.93 23.24 79.16 26.23
  C 49.11 36.46 31.78 60.44 25.92 91.10
  Q 25.32 94.25 24.70 97.49
  Q 24.09 100.74 23.85 103.86
  Q 23.06 114.03 23.05 123.57
  Q 23.00 228.85 23.04 333.72
  Q 23.04 344.02 23.86 354.41
  Q 24.08 357.26 24.66 360.18
  Q 25.23 363.04 25.76 366.12
  C 28.12 379.87 33.70 394.00 42.02 405.19
  C 60.40 429.89 89.72 437.98 120.64 437.97
  Q 171.30 437.97 220.38 437.97
  A 0.68 0.68 0.0 0 0 221.06 437.29
  L 221.06 422.21
  Q 221.06 421.52 220.36 421.52
  Q 174.75 421.61 130.91 421.47
  C 117.01 421.43 103.27 419.82 90.31 415.03
  Q 73.40 408.77 62.05 396.14
  Q 55.61 388.98 51.74 381.16
  Q 45.37 368.29 42.97 354.65
  Q 40.46 340.36 40.47 326.21
  Q 40.48 232.39 40.44 138.80
  C 40.44 122.24 41.26 106.13 46.30 90.52
  Q 50.71 76.87 58.14 66.97"
/>
<path stroke="#868685" vector-effect="non-scaling-stroke" d="
  M 233.39 418.89
  Q 233.04 419.68 233.04 420.54
  L 233.04 437.05
  Q 233.04 437.66 233.66 437.67
  Q 276.90 437.72 320.39 437.69
  Q 338.45 437.68 339.61 437.63
  Q 349.08 437.26 358.97 435.52
  C 396.61 428.88 420.20 405.29 427.99 367.70
  Q 430.35 356.33 430.87 344.00
  Q 430.97 341.77 430.98 324.01
  Q 431.03 233.94 430.98 133.00
  Q 430.97 123.03 430.75 113.00
  Q 430.52 102.53 428.44 91.81
  Q 426.02 79.28 421.38 68.51
  Q 421.05 67.75 420.37 68.22
  Q 410.23 75.27 398.50 80.77
  Q 384.20 87.49 366.29 94.47
  C 359.40 97.15 352.91 100.40 346.47 104.04
  Q 321.75 118.03 317.30 146.67
  Q 315.49 158.33 318.72 168.08
  Q 319.74 171.14 320.65 174.52
  Q 321.52 177.75 323.38 181.29
  Q 328.72 191.43 334.79 200.54
  Q 344.31 214.85 352.01 227.71
  C 363.18 246.36 369.77 266.13 368.91 288.01
  C 368.37 301.88 364.61 315.81 358.85 327.79
  C 351.25 343.59 339.63 356.59 324.95 366.24
  Q 315.26 372.61 305.25 377.25
  Q 291.47 383.63 271.55 391.56
  C 257.80 397.03 244.23 404.78 234.88 416.43
  Q 233.98 417.55 233.39 418.89"
/>
<path stroke="#868685" vector-effect="non-scaling-stroke" d="
  M 81.63 184.32
  L 81.55 225.62
  A 0.38 0.38 0.0 0 0 81.93 226.00
  L 94.01 226.02
  A 10.83 10.72 -89.9 0 0 104.75 215.21
  L 104.79 194.81
  A 10.83 10.72 -89.9 0 0 94.09 183.96
  L 82.01 183.94
  A 0.38 0.38 0.0 0 0 81.63 184.32"
/>
<path stroke="#868685" vector-effect="non-scaling-stroke" d="
  M 123.67 216.04
  A 0.43 0.43 0.0 0 1 124.09 216.40
  L 125.72 225.63
  A 0.43 0.43 0.0 0 0 126.14 225.98
  L 132.36 225.99
  A 0.43 0.43 0.0 0 0 132.79 225.47
  L 124.56 184.35
  A 0.43 0.43 0.0 0 0 124.14 184.00
  L 116.62 184.00
  A 0.43 0.43 0.0 0 0 116.20 184.35
  L 108.02 225.49
  A 0.43 0.43 0.0 0 0 108.44 226.00
  L 114.67 225.99
  A 0.43 0.43 0.0 0 0 115.09 225.63
  L 116.70 216.41
  A 0.43 0.43 0.0 0 1 117.12 216.05
  L 123.67 216.04"
/>
<path stroke="#868685" vector-effect="non-scaling-stroke" d="
  M 145.71 206.72
  L 147.88 206.75
  Q 148.52 206.75 148.68 207.38
  L 153.40 225.81
  Q 153.45 225.98 153.62 225.98
  L 160.89 225.99
  A 0.17 0.17 0.0 0 0 161.05 225.77
  L 155.46 205.77
  Q 155.33 205.28 155.78 205.04
  Q 159.67 203.03 160.21 198.17
  C 160.92 191.86 159.82 185.53 152.53 184.38
  Q 148.03 183.67 137.62 184.09
  Q 137.17 184.11 137.17 184.56
  L 137.16 225.71
  Q 137.16 225.99 137.45 225.99
  L 144.68 225.99
  Q 144.88 225.99 144.88 225.79
  L 144.88 207.54
  Q 144.88 206.71 145.71 206.72"
/>
<path stroke="#868685" vector-effect="non-scaling-stroke" d="
  M 173.87 201.03
  L 173.88 184.36
  Q 173.88 184.00 173.52 184.00
  L 166.47 184.01
  Q 166.20 184.01 166.20 184.28
  L 166.21 225.72
  Q 166.21 225.99 166.47 225.99
  L 173.66 225.99
  Q 173.83 225.99 173.84 225.81
  Q 173.93 218.84 173.84 211.66
  Q 173.82 209.30 175.35 207.48
  Q 175.74 207.02 175.94 207.58
  L 182.35 225.20
  A 1.21 1.20 79.9 0 0 183.48 225.99
  L 189.23 225.99
  Q 190.27 225.99 189.90 225.02
  L 181.60 203.11
  A 1.19 1.18 46.4 0 1 181.62 202.22
  L 189.28 184.31
  A 0.12 0.12 0.0 0 0 189.18 184.15
  Q 185.71 183.84 182.26 184.06
  A 0.33 0.32 10.3 0 0 181.98 184.25
  L 174.39 201.14
  Q 173.87 202.29 173.87 201.03"
/>
<path stroke="#b3bef0" vector-effect="non-scaling-stroke" d="
  M 89.63 242.08
  Q 94.45 240.90 95.18 246.03
  Q 95.33 247.10 95.22 248.01
  Q 95.15 248.64 95.78 248.54
  L 101.26 247.70
  Q 101.92 247.60 101.87 246.93
  Q 101.55 242.99 99.72 239.99
  C 97.08 235.66 90.76 235.30 86.42 236.97
  Q 80.64 239.20 80.53 246.33
  C 80.41 254.48 87.10 258.07 92.32 262.81
  Q 94.45 264.74 95.14 267.53
  C 95.64 269.58 95.43 272.56 92.89 273.14
  C 88.51 274.13 87.00 269.54 87.15 266.20
  Q 87.21 265.05 86.08 265.28
  L 81.45 266.23
  Q 80.25 266.47 80.53 267.66
  Q 80.84 269.02 81.02 270.48
  C 81.67 275.55 85.72 278.95 90.70 279.08
  Q 93.69 279.16 95.73 278.64
  C 104.15 276.49 104.05 265.51 99.63 260.17
  Q 96.43 256.30 91.27 252.27
  C 88.31 249.96 86.11 245.89 88.83 242.58
  Q 89.15 242.20 89.63 242.08"
/>
<path stroke="#b3bef0" vector-effect="non-scaling-stroke" d="
  M 122.99 259.99
  A 0.35 0.35 0.0 0 1 123.34 260.34
  L 123.33 278.63
  A 0.35 0.35 0.0 0 0 123.68 278.98
  L 130.61 278.99
  A 0.35 0.35 0.0 0 0 130.96 278.64
  L 130.97 237.02
  A 0.35 0.35 0.0 0 0 130.62 236.67
  L 123.69 236.66
  A 0.35 0.35 0.0 0 0 123.34 237.01
  L 123.34 253.99
  A 0.35 0.35 0.0 0 1 122.99 254.34
  L 115.10 254.34
  A 0.35 0.35 0.0 0 1 114.75 253.99
  L 114.75 237.01
  A 0.35 0.35 0.0 0 0 114.40 236.66
  L 107.48 236.67
  A 0.35 0.35 0.0 0 0 107.13 237.02
  L 107.12 278.64
  A 0.35 0.35 0.0 0 0 107.47 278.99
  L 114.40 278.98
  A 0.35 0.35 0.0 0 0 114.75 278.63
  L 114.75 260.35
  A 0.35 0.35 0.0 0 1 115.10 260.00
  L 122.99 259.99"
/>
<path stroke="#b3bef0" vector-effect="non-scaling-stroke" d="
  M 157.90 279.00
  A 0.30 0.30 0.0 0 0 158.20 278.70
  L 158.13 254.66
  A 0.30 0.30 0.0 0 1 158.71 254.55
  L 168.51 278.79
  A 0.30 0.30 0.0 0 0 168.79 278.98
  L 173.25 278.98
  A 0.30 0.30 0.0 0 0 173.55 278.68
  L 173.55 236.97
  A 0.30 0.30 0.0 0 0 173.25 236.67
  L 167.58 236.66
  A 0.30 0.30 0.0 0 0 167.28 236.96
  L 167.36 259.48
  A 0.30 0.30 0.0 0 1 166.79 259.59
  L 157.19 236.88
  A 0.30 0.30 0.0 0 0 156.91 236.70
  L 152.12 236.65
  A 0.30 0.30 0.0 0 0 151.82 236.95
  L 151.83 278.69
  A 0.30 0.30 0.0 0 0 152.13 278.99
  L 157.90 279.00"
/>
<path stroke="#b3bef0" vector-effect="non-scaling-stroke" d="
  M 145.15 237.01
  A 0.32 0.32 0.0 0 0 144.83 236.69
  L 138.17 236.69
  A 0.32 0.32 0.0 0 0 137.85 237.01
  L 137.85 278.69
  A 0.32 0.32 0.0 0 0 138.17 279.01
  L 144.83 279.01
  A 0.32 0.32 0.0 0 0 145.15 278.69
  L 145.15 237.01"
/>
<path stroke="#b3bef0" vector-effect="non-scaling-stroke" d="
  M 188.05 273.56
  A 0.40 0.40 0.0 0 1 187.65 273.16
  L 187.68 259.60
  A 0.40 0.40 0.0 0 1 188.08 259.20
  L 195.14 259.20
  A 0.40 0.40 0.0 0 0 195.54 258.80
  L 195.59 254.42
  A 0.40 0.40 0.0 0 0 195.19 254.02
  L 188.06 253.99
  A 0.40 0.40 0.0 0 1 187.66 253.59
  L 187.67 242.40
  A 0.40 0.40 0.0 0 1 188.07 242.00
  L 197.29 241.97
  A 0.40 0.40 0.0 0 0 197.69 241.57
  L 197.71 237.07
  A 0.40 0.40 0.0 0 0 197.31 236.67
  L 180.44 236.67
  A 0.40 0.40 0.0 0 0 180.04 237.07
  L 180.04 278.59
  A 0.40 0.40 0.0 0 0 180.44 278.99
  L 197.40 278.98
  A 0.40 0.40 0.0 0 0 197.80 278.59
  L 197.86 273.95
  A 0.40 0.40 0.0 0 0 197.46 273.54
  L 188.05 273.56"
/>
<path stroke="#868685" vector-effect="non-scaling-stroke" d="
  M 260.7642 79.2970
  A 1.50 1.36 86.4 0 0 262.0273 77.7146
  A 1.50 1.36 86.4 0 0 260.5758 76.3030
  A 1.50 1.36 86.4 0 0 259.3127 77.8854
  A 1.50 1.36 86.4 0 0 260.7642 79.2970"
/>
<path stroke="#868685" vector-effect="non-scaling-stroke" d="
  M 255.88 84.56
  A 3.04 3.04 0.0 0 0 252.84 81.52
  A 3.04 3.04 0.0 0 0 249.80 84.56
  A 3.04 3.04 0.0 0 0 252.84 87.60
  A 3.04 3.04 0.0 0 0 255.88 84.56"
/>
<path stroke="#868685" vector-effect="non-scaling-stroke" d="
  M 270.7726 90.6413
  A 1.53 1.34 83.9 0 0 271.9424 88.9776
  A 1.53 1.34 83.9 0 0 270.4474 87.5987
  A 1.53 1.34 83.9 0 0 269.2776 89.2624
  A 1.53 1.34 83.9 0 0 270.7726 90.6413"
/>
<path stroke="#868685" vector-effect="non-scaling-stroke" d="
  M 262.38 93.85
  A 1.45 1.45 0.0 0 0 260.93 92.40
  A 1.45 1.45 0.0 0 0 259.48 93.85
  A 1.45 1.45 0.0 0 0 260.93 95.30
  A 1.45 1.45 0.0 0 0 262.38 93.85"
/>
<path stroke="#868685" vector-effect="non-scaling-stroke" d="
  M 252.33 148.58
  A 1.37 1.37 0.0 0 0 250.96 147.21
  A 1.37 1.37 0.0 0 0 249.59 148.58
  A 1.37 1.37 0.0 0 0 250.96 149.95
  A 1.37 1.37 0.0 0 0 252.33 148.58"
/>
<path stroke="#868685" vector-effect="non-scaling-stroke" d="
  M 262.7617 208.6454
  A 1.54 1.37 82.1 0 0 263.9070 206.9317
  A 1.54 1.37 82.1 0 0 262.3383 205.5946
  A 1.54 1.37 82.1 0 0 261.1930 207.3083
  A 1.54 1.37 82.1 0 0 262.7617 208.6454"
/>
<path stroke="#868685" vector-effect="non-scaling-stroke" d="
  M 305.23 243.98
  A 1.47 1.47 0.0 0 0 303.76 242.51
  A 1.47 1.47 0.0 0 0 302.29 243.98
  A 1.47 1.47 0.0 0 0 303.76 245.45
  A 1.47 1.47 0.0 0 0 305.23 243.98"
/>
<path stroke="#868685" vector-effect="non-scaling-stroke" d="
  M 289.0400 252.4800
  A 1.47 1.28 90.0 0 0 290.3200 251.0100
  A 1.47 1.28 90.0 0 0 289.0400 249.5400
  A 1.47 1.28 90.0 0 0 287.7600 251.0100
  A 1.47 1.28 90.0 0 0 289.0400 252.4800"
/>
<path stroke="#868685" vector-effect="non-scaling-stroke" d="
  M 305.5214 258.8888
  A 1.53 1.36 87.7 0 0 306.8189 257.3054
  A 1.53 1.36 87.7 0 0 305.3986 255.8312
  A 1.53 1.36 87.7 0 0 304.1011 257.4146
  A 1.53 1.36 87.7 0 0 305.5214 258.8888"
/>
<path stroke="#868685" vector-effect="non-scaling-stroke" d="
  M 310.9726 262.9037
  A 0.97 0.97 0.0 0 0 310.5124 261.6114
  L 309.9523 261.3455
  A 0.97 0.97 0.0 0 0 308.6600 261.8056
  L 307.2874 264.6963
  A 0.97 0.97 0.0 0 0 307.7476 265.9886
  L 308.3077 266.2545
  A 0.97 0.97 0.0 0 0 309.6000 265.7944
  L 310.9726 262.9037"
/>
<path stroke="#868685" vector-effect="non-scaling-stroke" d="
  M 263.43 267.19
  A 1.36 1.36 0.0 0 0 262.07 265.83
  A 1.36 1.36 0.0 0 0 260.71 267.19
  A 1.36 1.36 0.0 0 0 262.07 268.55
  A 1.36 1.36 0.0 0 0 263.43 267.19"
/>
<path stroke="#868685" vector-effect="non-scaling-stroke" d="
  M 253.7123 294.4200
  A 1.32 1.08 89.9 0 0 254.7900 293.0981
  A 1.32 1.08 89.9 0 0 253.7077 291.7800
  A 1.32 1.08 89.9 0 0 252.6300 293.1019
  A 1.32 1.08 89.9 0 0 253.7123 294.4200"
/>
<path stroke="#868685" vector-effect="non-scaling-stroke" d="
  M 255.5172 299.8452
  A 1.43 1.14 85.3 0 0 256.5362 298.3266
  A 1.43 1.14 85.3 0 0 255.2828 296.9948
  A 1.43 1.14 85.3 0 0 254.2638 298.5134
  A 1.43 1.14 85.3 0 0 255.5172 299.8452"
/>
<path stroke="#868685" vector-effect="non-scaling-stroke" d="
  M 282.1275 302.2900
  A 1.44 1.29 89.7 0 0 283.4100 300.8432
  A 1.44 1.29 89.7 0 0 282.1125 299.4100
  A 1.44 1.29 89.7 0 0 280.8300 300.8568
  A 1.44 1.29 89.7 0 0 282.1275 302.2900"
/>
<path stroke="#868685" vector-effect="non-scaling-stroke" d="
  M 301.99 309.59
  A 1.38 1.38 0.0 0 0 300.61 308.21
  A 1.38 1.38 0.0 0 0 299.23 309.59
  A 1.38 1.38 0.0 0 0 300.61 310.97
  A 1.38 1.38 0.0 0 0 301.99 309.59"
/>
<path stroke="#868685" vector-effect="non-scaling-stroke" d="
  M 257.69 310.34
  A 1.45 1.45 0.0 0 0 256.24 308.89
  A 1.45 1.45 0.0 0 0 254.79 310.34
  A 1.45 1.45 0.0 0 0 256.24 311.79
  A 1.45 1.45 0.0 0 0 257.69 310.34"
/>
<path stroke="#868685" vector-effect="non-scaling-stroke" d="
  M 246.06 314.24
  L 246.06 316.04
  Q 246.06 316.73 246.75 316.64
  Q 247.56 316.53 247.71 315.72
  Q 247.89 314.72 247.42 313.88
  A 0.73 0.73 0.0 0 0 246.06 314.24"
/>
<path stroke="#868685" vector-effect="non-scaling-stroke" d="
  M 256.5254 327.9696
  A 1.56 1.35 88.7 0 0 257.8397 326.3794
  A 1.56 1.35 88.7 0 0 256.4546 324.8504
  A 1.56 1.35 88.7 0 0 255.1403 326.4406
  A 1.56 1.35 88.7 0 0 256.5254 327.9696"
/>
<path stroke="#868685" vector-effect="non-scaling-stroke" d="
  M 388.90 110.76
  A 3.01 3.01 0.0 0 0 385.89 107.75
  A 3.01 3.01 0.0 0 0 382.88 110.76
  A 3.01 3.01 0.0 0 0 385.89 113.77
  A 3.01 3.01 0.0 0 0 388.90 110.76"
/>
<path stroke="#868685" vector-effect="non-scaling-stroke" d="
  M 336.2320 142.2385
  A 1.50 1.34 92.6 0 0 337.6386 140.8008
  A 1.50 1.34 92.6 0 0 336.3680 139.2415
  A 1.50 1.34 92.6 0 0 334.9614 140.6792
  A 1.50 1.34 92.6 0 0 336.2320 142.2385"
/>
<path stroke="#868685" vector-effect="non-scaling-stroke" d="
  M 369.98 148.02
  A 3.01 3.01 0.0 0 0 366.97 145.01
  A 3.01 3.01 0.0 0 0 363.96 148.02
  A 3.01 3.01 0.0 0 0 366.97 151.03
  A 3.01 3.01 0.0 0 0 369.98 148.02"
/>
<path stroke="#868685" vector-effect="non-scaling-stroke" d="
  M 335.50 163.72
  A 1.41 1.41 0.0 0 0 334.09 162.31
  A 1.41 1.41 0.0 0 0 332.68 163.72
  A 1.41 1.41 0.0 0 0 334.09 165.13
  A 1.41 1.41 0.0 0 0 335.50 163.72"
/>
<path stroke="#868685" vector-effect="non-scaling-stroke" d="
  M 343.6172 167.6985
  A 1.54 1.35 87.5 0 0 344.8987 166.1011
  A 1.54 1.35 87.5 0 0 343.4828 164.6215
  A 1.54 1.35 87.5 0 0 342.2013 166.2189
  A 1.54 1.35 87.5 0 0 343.6172 167.6985"
/>
<path stroke="#868685" vector-effect="non-scaling-stroke" d="
  M 402.1677 171.2685
  A 1.38 1.18 82.6 0 0 403.1602 169.7480
  A 1.38 1.18 82.6 0 0 401.8123 168.5315
  A 1.38 1.18 82.6 0 0 400.8198 170.0520
  A 1.38 1.18 82.6 0 0 402.1677 171.2685"
/>
<path stroke="#868685" vector-effect="non-scaling-stroke" d="
  M 370.8200 195.9900
  A 1.31 1.09 90.0 0 0 371.9100 194.6800
  A 1.31 1.09 90.0 0 0 370.8200 193.3700
  A 1.31 1.09 90.0 0 0 369.7300 194.6800
  A 1.31 1.09 90.0 0 0 370.8200 195.9900"
/>
<path stroke="#868685" vector-effect="non-scaling-stroke" d="
  M 402.32 195.63
  A 1.36 1.36 0.0 0 0 400.96 194.27
  A 1.36 1.36 0.0 0 0 399.60 195.63
  A 1.36 1.36 0.0 0 0 400.96 196.99
  A 1.36 1.36 0.0 0 0 402.32 195.63"
/>
<path stroke="#868685" vector-effect="non-scaling-stroke" d="
  M 375.5203 197.2796
  A 1.24 0.95 88.6 0 0 376.4397 196.0168
  A 1.24 0.95 88.6 0 0 375.4597 194.8004
  A 1.24 0.95 88.6 0 0 374.5403 196.0632
  A 1.24 0.95 88.6 0 0 375.5203 197.2796"
/>
<path stroke="#868685" vector-effect="non-scaling-stroke" d="
  M 394.2359 200.2187
  A 1.53 1.26 92.4 0 0 395.5589 198.7428
  A 1.53 1.26 92.4 0 0 394.3641 197.1613
  A 1.53 1.26 92.4 0 0 393.0411 198.6372
  A 1.53 1.26 92.4 0 0 394.2359 200.2187"
/>
<path stroke="#868685" vector-effect="non-scaling-stroke" d="
  M 377.6130 210.8169
  A 1.48 1.26 74.6 0 0 378.4348 209.0554
  A 1.48 1.26 74.6 0 0 376.8270 207.9631
  A 1.48 1.26 74.6 0 0 376.0052 209.7246
  A 1.48 1.26 74.6 0 0 377.6130 210.8169"
/>
<path stroke="#868685" vector-effect="non-scaling-stroke" d="
  M 397.3970 212.0133
  A 1.52 1.30 95.4 0 0 398.8342 210.6223
  A 1.52 1.30 95.4 0 0 397.6830 208.9867
  A 1.52 1.30 95.4 0 0 396.2458 210.3777
  A 1.52 1.30 95.4 0 0 397.3970 212.0133"
/>
<path stroke="#868685" vector-effect="non-scaling-stroke" d="
  M 381.4446 216.4605
  A 1.04 1.04 0.0 0 0 380.3690 215.4574
  L 380.1691 215.4644
  A 1.04 1.04 0.0 0 0 379.1660 216.5400
  L 379.1954 217.3795
  A 1.04 1.04 0.0 0 0 380.2710 218.3826
  L 380.4709 218.3756
  A 1.04 1.04 0.0 0 0 381.4740 217.3000
  L 381.4446 216.4605"
/>
<path stroke="#868685" vector-effect="non-scaling-stroke" d="
  M 377.8960 221.4511
  A 1.34 1.19 96.6 0 0 379.2321 220.2568
  A 1.34 1.19 96.6 0 0 378.2040 218.7889
  A 1.34 1.19 96.6 0 0 376.8679 219.9832
  A 1.34 1.19 96.6 0 0 377.8960 221.4511"
/>
<path stroke="#868685" vector-effect="non-scaling-stroke" d="
  M 418.31 239.93
  A 3.01 3.01 0.0 0 0 415.30 236.92
  A 3.01 3.01 0.0 0 0 412.29 239.93
  A 3.01 3.01 0.0 0 0 415.30 242.94
  A 3.01 3.01 0.0 0 0 418.31 239.93"
/>
<path stroke="#868685" vector-effect="non-scaling-stroke" d="
  M 412.7636 268.4698
  A 1.50 1.26 89.1 0 0 413.9998 266.9502
  A 1.50 1.26 89.1 0 0 412.7164 265.4702
  A 1.50 1.26 89.1 0 0 411.4802 266.9898
  A 1.50 1.26 89.1 0 0 412.7636 268.4698"
/>
<path stroke="#868685" vector-effect="non-scaling-stroke" d="
  M 388.4846 294.5400
  A 1.54 1.33 90.2 0 0 389.8200 293.0046
  A 1.54 1.33 90.2 0 0 388.4954 291.4600
  A 1.54 1.33 90.2 0 0 387.1600 292.9954
  A 1.54 1.33 90.2 0 0 388.4846 294.5400"
/>
<path stroke="#868685" vector-effect="non-scaling-stroke" d="
  M 425.69 308.92
  A 3.01 3.01 0.0 0 0 422.68 305.91
  A 3.01 3.01 0.0 0 0 419.67 308.92
  A 3.01 3.01 0.0 0 0 422.68 311.93
  A 3.01 3.01 0.0 0 0 425.69 308.92"
/>
<path stroke="#868685" vector-effect="non-scaling-stroke" d="
  M 382.41 346.63
  A 1.31 1.31 0.0 0 0 381.10 345.32
  A 1.31 1.31 0.0 0 0 379.79 346.63
  A 1.31 1.31 0.0 0 0 381.10 347.94
  A 1.31 1.31 0.0 0 0 382.41 346.63"
/>
<path stroke="#868685" vector-effect="non-scaling-stroke" d="
  M 353.96 356.89
  A 3.01 3.01 0.0 0 0 350.95 353.88
  A 3.01 3.01 0.0 0 0 347.94 356.89
  A 3.01 3.01 0.0 0 0 350.95 359.90
  A 3.01 3.01 0.0 0 0 353.96 356.89"
/>
<path stroke="#868685" vector-effect="non-scaling-stroke" d="
  M 309.4941 396.0387
  A 1.53 1.32 87.6 0 0 310.7488 394.4547
  A 1.53 1.32 87.6 0 0 309.3659 392.9813
  A 1.53 1.32 87.6 0 0 308.1112 394.5653
  A 1.53 1.32 87.6 0 0 309.4941 396.0387"
/>
<path stroke="#868685" vector-effect="non-scaling-stroke" d="
  M 89.06 189.65
  L 89.06 220.37
  A 0.40 0.40 0.0 0 0 89.46 220.77
  L 92.13 220.77
  A 5.04 4.91 -90.0 0 0 97.04 215.73
  L 97.04 194.29
  A 5.04 4.91 90.0 0 0 92.13 189.25
  L 89.46 189.25
  A 0.40 0.40 0.0 0 0 89.06 189.65"
/>
<path stroke="#868685" vector-effect="non-scaling-stroke" d="
  M 120.19 194.83
  L 117.71 210.80
  Q 117.65 211.20 118.06 211.20
  L 122.92 211.18
  Q 123.29 211.18 123.23 210.82
  L 120.63 194.83
  A 0.22 0.22 0.0 0 0 120.19 194.83"
/>
<path stroke="#868685" vector-effect="non-scaling-stroke" d="
  M 144.87 189.30
  L 144.87 201.64
  A 0.29 0.29 0.0 0 0 145.16 201.93
  L 148.12 201.93
  A 5.05 4.82 0.0 0 0 153.17 197.11
  L 153.17 193.83
  A 5.05 4.82 -0.0 0 0 148.12 189.01
  L 145.16 189.01
  A 0.29 0.29 0.0 0 0 144.87 189.30"
/>
</g>
<path fill="#ffffff" d="
  M 0.00 0.00
  L 470.00 0.00
  L 470.00 450.00
  L 0.00 450.00
  L 0.00 0.00
  Z
  M 235.73 354.57
  Q 236.23 354.54 236.79 354.29
  Q 249.70 348.39 265.52 342.02
  C 276.76 337.49 286.91 332.83 296.12 325.90
  Q 306.07 318.40 311.50 306.96
  Q 324.33 279.94 310.88 253.89
  C 308.49 249.25 306.62 244.61 303.63 240.26
  Q 294.65 227.21 287.05 215.51
  Q 279.20 203.42 273.16 188.84
  C 265.44 170.21 263.22 149.73 267.77 130.45
  Q 268.82 126.02 270.05 121.78
  C 275.94 101.45 289.11 83.61 306.01 71.55
  Q 319.26 62.08 335.80 55.22
  Q 352.66 48.22 368.80 41.24
  Q 377.56 37.45 385.91 31.94
  Q 387.20 31.09 385.81 30.41
  Q 373.67 24.46 360.00 21.85
  C 356.59 21.20 353.18 21.13 349.85 20.52
  C 344.59 19.55 338.77 19.62 333.27 19.60
  Q 284.67 19.40 233.27 19.53
  A 0.27 0.27 0.0 0 0 233.00 19.80
  L 233.01 355.28
  A 0.60 0.59 -22.2 0 0 234.02 355.70
  L 234.72 355.02
  Q 235.14 354.61 235.73 354.57
  Z
  M 58.14 66.97
  Q 67.40 54.62 81.42 47.33
  Q 94.37 40.60 108.66 38.65
  Q 112.70 38.09 116.69 37.50
  Q 120.39 36.96 123.86 36.91
  C 156.05 36.48 188.30 36.75 220.50 36.81
  Q 221.07 36.81 221.07 36.23
  L 221.06 20.20
  A 0.35 0.35 0.0 0 0 220.71 19.85
  Q 171.24 19.83 121.75 19.82
  Q 109.88 19.82 97.39 21.77
  Q 87.93 23.24 79.16 26.23
  C 49.11 36.46 31.78 60.44 25.92 91.10
  Q 25.32 94.25 24.70 97.49
  Q 24.09 100.74 23.85 103.86
  Q 23.06 114.03 23.05 123.57
  Q 23.00 228.85 23.04 333.72
  Q 23.04 344.02 23.86 354.41
  Q 24.08 357.26 24.66 360.18
  Q 25.23 363.04 25.76 366.12
  C 28.12 379.87 33.70 394.00 42.02 405.19
  C 60.40 429.89 89.72 437.98 120.64 437.97
  Q 171.30 437.97 220.38 437.97
  A 0.68 0.68 0.0 0 0 221.06 437.29
  L 221.06 422.21
  Q 221.06 421.52 220.36 421.52
  Q 174.75 421.61 130.91 421.47
  C 117.01 421.43 103.27 419.82 90.31 415.03
  Q 73.40 408.77 62.05 396.14
  Q 55.61 388.98 51.74 381.16
  Q 45.37 368.29 42.97 354.65
  Q 40.46 340.36 40.47 326.21
  Q 40.48 232.39 40.44 138.80
  C 40.44 122.24 41.26 106.13 46.30 90.52
  Q 50.71 76.87 58.14 66.97
  Z
  M 233.39 418.89
  Q 233.04 419.68 233.04 420.54
  L 233.04 437.05
  Q 233.04 437.66 233.66 437.67
  Q 276.90 437.72 320.39 437.69
  Q 338.45 437.68 339.61 437.63
  Q 349.08 437.26 358.97 435.52
  C 396.61 428.88 420.20 405.29 427.99 367.70
  Q 430.35 356.33 430.87 344.00
  Q 430.97 341.77 430.98 324.01
  Q 431.03 233.94 430.98 133.00
  Q 430.97 123.03 430.75 113.00
  Q 430.52 102.53 428.44 91.81
  Q 426.02 79.28 421.38 68.51
  Q 421.05 67.75 420.37 68.22
  Q 410.23 75.27 398.50 80.77
  Q 384.20 87.49 366.29 94.47
  C 359.40 97.15 352.91 100.40 346.47 104.04
  Q 321.75 118.03 317.30 146.67
  Q 315.49 158.33 318.72 168.08
  Q 319.74 171.14 320.65 174.52
  Q 321.52 177.75 323.38 181.29
  Q 328.72 191.43 334.79 200.54
  Q 344.31 214.85 352.01 227.71
  C 363.18 246.36 369.77 266.13 368.91 288.01
  C 368.37 301.88 364.61 315.81 358.85 327.79
  C 351.25 343.59 339.63 356.59 324.95 366.24
  Q 315.26 372.61 305.25 377.25
  Q 291.47 383.63 271.55 391.56
  C 257.80 397.03 244.23 404.78 234.88 416.43
  Q 233.98 417.55 233.39 418.89
  Z
  M 81.63 184.32
  L 81.55 225.62
  A 0.38 0.38 0.0 0 0 81.93 226.00
  L 94.01 226.02
  A 10.83 10.72 -89.9 0 0 104.75 215.21
  L 104.79 194.81
  A 10.83 10.72 -89.9 0 0 94.09 183.96
  L 82.01 183.94
  A 0.38 0.38 0.0 0 0 81.63 184.32
  Z
  M 123.67 216.04
  A 0.43 0.43 0.0 0 1 124.09 216.40
  L 125.72 225.63
  A 0.43 0.43 0.0 0 0 126.14 225.98
  L 132.36 225.99
  A 0.43 0.43 0.0 0 0 132.79 225.47
  L 124.56 184.35
  A 0.43 0.43 0.0 0 0 124.14 184.00
  L 116.62 184.00
  A 0.43 0.43 0.0 0 0 116.20 184.35
  L 108.02 225.49
  A 0.43 0.43 0.0 0 0 108.44 226.00
  L 114.67 225.99
  A 0.43 0.43 0.0 0 0 115.09 225.63
  L 116.70 216.41
  A 0.43 0.43 0.0 0 1 117.12 216.05
  L 123.67 216.04
  Z
  M 145.71 206.72
  L 147.88 206.75
  Q 148.52 206.75 148.68 207.38
  L 153.40 225.81
  Q 153.45 225.98 153.62 225.98
  L 160.89 225.99
  A 0.17 0.17 0.0 0 0 161.05 225.77
  L 155.46 205.77
  Q 155.33 205.28 155.78 205.04
  Q 159.67 203.03 160.21 198.17
  C 160.92 191.86 159.82 185.53 152.53 184.38
  Q 148.03 183.67 137.62 184.09
  Q 137.17 184.11 137.17 184.56
  L 137.16 225.71
  Q 137.16 225.99 137.45 225.99
  L 144.68 225.99
  Q 144.88 225.99 144.88 225.79
  L 144.88 207.54
  Q 144.88 206.71 145.71 206.72
  Z
  M 173.87 201.03
  L 173.88 184.36
  Q 173.88 184.00 173.52 184.00
  L 166.47 184.01
  Q 166.20 184.01 166.20 184.28
  L 166.21 225.72
  Q 166.21 225.99 166.47 225.99
  L 173.66 225.99
  Q 173.83 225.99 173.84 225.81
  Q 173.93 218.84 173.84 211.66
  Q 173.82 209.30 175.35 207.48
  Q 175.74 207.02 175.94 207.58
  L 182.35 225.20
  A 1.21 1.20 79.9 0 0 183.48 225.99
  L 189.23 225.99
  Q 190.27 225.99 189.90 225.02
  L 181.60 203.11
  A 1.19 1.18 46.4 0 1 181.62 202.22
  L 189.28 184.31
  A 0.12 0.12 0.0 0 0 189.18 184.15
  Q 185.71 183.84 182.26 184.06
  A 0.33 0.32 10.3 0 0 181.98 184.25
  L 174.39 201.14
  Q 173.87 202.29 173.87 201.03
  Z
  M 89.63 242.08
  Q 94.45 240.90 95.18 246.03
  Q 95.33 247.10 95.22 248.01
  Q 95.15 248.64 95.78 248.54
  L 101.26 247.70
  Q 101.92 247.60 101.87 246.93
  Q 101.55 242.99 99.72 239.99
  C 97.08 235.66 90.76 235.30 86.42 236.97
  Q 80.64 239.20 80.53 246.33
  C 80.41 254.48 87.10 258.07 92.32 262.81
  Q 94.45 264.74 95.14 267.53
  C 95.64 269.58 95.43 272.56 92.89 273.14
  C 88.51 274.13 87.00 269.54 87.15 266.20
  Q 87.21 265.05 86.08 265.28
  L 81.45 266.23
  Q 80.25 266.47 80.53 267.66
  Q 80.84 269.02 81.02 270.48
  C 81.67 275.55 85.72 278.95 90.70 279.08
  Q 93.69 279.16 95.73 278.64
  C 104.15 276.49 104.05 265.51 99.63 260.17
  Q 96.43 256.30 91.27 252.27
  C 88.31 249.96 86.11 245.89 88.83 242.58
  Q 89.15 242.20 89.63 242.08
  Z
  M 122.99 259.99
  A 0.35 0.35 0.0 0 1 123.34 260.34
  L 123.33 278.63
  A 0.35 0.35 0.0 0 0 123.68 278.98
  L 130.61 278.99
  A 0.35 0.35 0.0 0 0 130.96 278.64
  L 130.97 237.02
  A 0.35 0.35 0.0 0 0 130.62 236.67
  L 123.69 236.66
  A 0.35 0.35 0.0 0 0 123.34 237.01
  L 123.34 253.99
  A 0.35 0.35 0.0 0 1 122.99 254.34
  L 115.10 254.34
  A 0.35 0.35 0.0 0 1 114.75 253.99
  L 114.75 237.01
  A 0.35 0.35 0.0 0 0 114.40 236.66
  L 107.48 236.67
  A 0.35 0.35 0.0 0 0 107.13 237.02
  L 107.12 278.64
  A 0.35 0.35 0.0 0 0 107.47 278.99
  L 114.40 278.98
  A 0.35 0.35 0.0 0 0 114.75 278.63
  L 114.75 260.35
  A 0.35 0.35 0.0 0 1 115.10 260.00
  L 122.99 259.99
  Z
  M 157.90 279.00
  A 0.30 0.30 0.0 0 0 158.20 278.70
  L 158.13 254.66
  A 0.30 0.30 0.0 0 1 158.71 254.55
  L 168.51 278.79
  A 0.30 0.30 0.0 0 0 168.79 278.98
  L 173.25 278.98
  A 0.30 0.30 0.0 0 0 173.55 278.68
  L 173.55 236.97
  A 0.30 0.30 0.0 0 0 173.25 236.67
  L 167.58 236.66
  A 0.30 0.30 0.0 0 0 167.28 236.96
  L 167.36 259.48
  A 0.30 0.30 0.0 0 1 166.79 259.59
  L 157.19 236.88
  A 0.30 0.30 0.0 0 0 156.91 236.70
  L 152.12 236.65
  A 0.30 0.30 0.0 0 0 151.82 236.95
  L 151.83 278.69
  A 0.30 0.30 0.0 0 0 152.13 278.99
  L 157.90 279.00
  Z
  M 145.15 237.01
  A 0.32 0.32 0.0 0 0 144.83 236.69
  L 138.17 236.69
  A 0.32 0.32 0.0 0 0 137.85 237.01
  L 137.85 278.69
  A 0.32 0.32 0.0 0 0 138.17 279.01
  L 144.83 279.01
  A 0.32 0.32 0.0 0 0 145.15 278.69
  L 145.15 237.01
  Z
  M 188.05 273.56
  A 0.40 0.40 0.0 0 1 187.65 273.16
  L 187.68 259.60
  A 0.40 0.40 0.0 0 1 188.08 259.20
  L 195.14 259.20
  A 0.40 0.40 0.0 0 0 195.54 258.80
  L 195.59 254.42
  A 0.40 0.40 0.0 0 0 195.19 254.02
  L 188.06 253.99
  A 0.40 0.40 0.0 0 1 187.66 253.59
  L 187.67 242.40
  A 0.40 0.40 0.0 0 1 188.07 242.00
  L 197.29 241.97
  A 0.40 0.40 0.0 0 0 197.69 241.57
  L 197.71 237.07
  A 0.40 0.40 0.0 0 0 197.31 236.67
  L 180.44 236.67
  A 0.40 0.40 0.0 0 0 180.04 237.07
  L 180.04 278.59
  A 0.40 0.40 0.0 0 0 180.44 278.99
  L 197.40 278.98
  A 0.40 0.40 0.0 0 0 197.80 278.59
  L 197.86 273.95
  A 0.40 0.40 0.0 0 0 197.46 273.54
  L 188.05 273.56
  Z"
/>
<path fill="#0d0c0a" d="
  M 234.72 355.02
  L 234.02 355.70
  A 0.60 0.59 -22.2 0 1 233.01 355.28
  L 233.00 19.80
  A 0.27 0.27 0.0 0 1 233.27 19.53
  Q 284.67 19.40 333.27 19.60
  C 338.77 19.62 344.59 19.55 349.85 20.52
  C 353.18 21.13 356.59 21.20 360.00 21.85
  Q 373.67 24.46 385.81 30.41
  Q 387.20 31.09 385.91 31.94
  Q 377.56 37.45 368.80 41.24
  Q 352.66 48.22 335.80 55.22
  Q 319.26 62.08 306.01 71.55
  C 289.11 83.61 275.94 101.45 270.05 121.78
  Q 268.82 126.02 267.77 130.45
  C 263.22 149.73 265.44 170.21 273.16 188.84
  Q 279.20 203.42 287.05 215.51
  Q 294.65 227.21 303.63 240.26
  C 306.62 244.61 308.49 249.25 310.88 253.89
  Q 324.33 279.94 311.50 306.96
  Q 306.07 318.40 296.12 325.90
  C 286.91 332.83 276.76 337.49 265.52 342.02
  Q 249.70 348.39 236.79 354.29
  Q 236.23 354.54 235.73 354.57
  Q 235.14 354.61 234.72 355.02
  Z
  M 260.7642 79.2970
  A 1.50 1.36 86.4 0 0 262.0273 77.7146
  A 1.50 1.36 86.4 0 0 260.5758 76.3030
  A 1.50 1.36 86.4 0 0 259.3127 77.8854
  A 1.50 1.36 86.4 0 0 260.7642 79.2970
  Z
  M 255.88 84.56
  A 3.04 3.04 0.0 0 0 252.84 81.52
  A 3.04 3.04 0.0 0 0 249.80 84.56
  A 3.04 3.04 0.0 0 0 252.84 87.60
  A 3.04 3.04 0.0 0 0 255.88 84.56
  Z
  M 270.7726 90.6413
  A 1.53 1.34 83.9 0 0 271.9424 88.9776
  A 1.53 1.34 83.9 0 0 270.4474 87.5987
  A 1.53 1.34 83.9 0 0 269.2776 89.2624
  A 1.53 1.34 83.9 0 0 270.7726 90.6413
  Z
  M 262.38 93.85
  A 1.45 1.45 0.0 0 0 260.93 92.40
  A 1.45 1.45 0.0 0 0 259.48 93.85
  A 1.45 1.45 0.0 0 0 260.93 95.30
  A 1.45 1.45 0.0 0 0 262.38 93.85
  Z
  M 252.33 148.58
  A 1.37 1.37 0.0 0 0 250.96 147.21
  A 1.37 1.37 0.0 0 0 249.59 148.58
  A 1.37 1.37 0.0 0 0 250.96 149.95
  A 1.37 1.37 0.0 0 0 252.33 148.58
  Z
  M 262.7617 208.6454
  A 1.54 1.37 82.1 0 0 263.9070 206.9317
  A 1.54 1.37 82.1 0 0 262.3383 205.5946
  A 1.54 1.37 82.1 0 0 261.1930 207.3083
  A 1.54 1.37 82.1 0 0 262.7617 208.6454
  Z
  M 305.23 243.98
  A 1.47 1.47 0.0 0 0 303.76 242.51
  A 1.47 1.47 0.0 0 0 302.29 243.98
  A 1.47 1.47 0.0 0 0 303.76 245.45
  A 1.47 1.47 0.0 0 0 305.23 243.98
  Z
  M 289.0400 252.4800
  A 1.47 1.28 90.0 0 0 290.3200 251.0100
  A 1.47 1.28 90.0 0 0 289.0400 249.5400
  A 1.47 1.28 90.0 0 0 287.7600 251.0100
  A 1.47 1.28 90.0 0 0 289.0400 252.4800
  Z
  M 305.5214 258.8888
  A 1.53 1.36 87.7 0 0 306.8189 257.3054
  A 1.53 1.36 87.7 0 0 305.3986 255.8312
  A 1.53 1.36 87.7 0 0 304.1011 257.4146
  A 1.53 1.36 87.7 0 0 305.5214 258.8888
  Z
  M 310.9726 262.9037
  A 0.97 0.97 0.0 0 0 310.5124 261.6114
  L 309.9523 261.3455
  A 0.97 0.97 0.0 0 0 308.6600 261.8056
  L 307.2874 264.6963
  A 0.97 0.97 0.0 0 0 307.7476 265.9886
  L 308.3077 266.2545
  A 0.97 0.97 0.0 0 0 309.6000 265.7944
  L 310.9726 262.9037
  Z
  M 263.43 267.19
  A 1.36 1.36 0.0 0 0 262.07 265.83
  A 1.36 1.36 0.0 0 0 260.71 267.19
  A 1.36 1.36 0.0 0 0 262.07 268.55
  A 1.36 1.36 0.0 0 0 263.43 267.19
  Z
  M 253.7123 294.4200
  A 1.32 1.08 89.9 0 0 254.7900 293.0981
  A 1.32 1.08 89.9 0 0 253.7077 291.7800
  A 1.32 1.08 89.9 0 0 252.6300 293.1019
  A 1.32 1.08 89.9 0 0 253.7123 294.4200
  Z
  M 255.5172 299.8452
  A 1.43 1.14 85.3 0 0 256.5362 298.3266
  A 1.43 1.14 85.3 0 0 255.2828 296.9948
  A 1.43 1.14 85.3 0 0 254.2638 298.5134
  A 1.43 1.14 85.3 0 0 255.5172 299.8452
  Z
  M 282.1275 302.2900
  A 1.44 1.29 89.7 0 0 283.4100 300.8432
  A 1.44 1.29 89.7 0 0 282.1125 299.4100
  A 1.44 1.29 89.7 0 0 280.8300 300.8568
  A 1.44 1.29 89.7 0 0 282.1275 302.2900
  Z
  M 301.99 309.59
  A 1.38 1.38 0.0 0 0 300.61 308.21
  A 1.38 1.38 0.0 0 0 299.23 309.59
  A 1.38 1.38 0.0 0 0 300.61 310.97
  A 1.38 1.38 0.0 0 0 301.99 309.59
  Z
  M 257.69 310.34
  A 1.45 1.45 0.0 0 0 256.24 308.89
  A 1.45 1.45 0.0 0 0 254.79 310.34
  A 1.45 1.45 0.0 0 0 256.24 311.79
  A 1.45 1.45 0.0 0 0 257.69 310.34
  Z
  M 246.06 314.24
  L 246.06 316.04
  Q 246.06 316.73 246.75 316.64
  Q 247.56 316.53 247.71 315.72
  Q 247.89 314.72 247.42 313.88
  A 0.73 0.73 0.0 0 0 246.06 314.24
  Z
  M 256.5254 327.9696
  A 1.56 1.35 88.7 0 0 257.8397 326.3794
  A 1.56 1.35 88.7 0 0 256.4546 324.8504
  A 1.56 1.35 88.7 0 0 255.1403 326.4406
  A 1.56 1.35 88.7 0 0 256.5254 327.9696
  Z"
/>
<path fill="#0d0c0a" d="
  M 58.14 66.97
  Q 50.71 76.87 46.30 90.52
  C 41.26 106.13 40.44 122.24 40.44 138.80
  Q 40.48 232.39 40.47 326.21
  Q 40.46 340.36 42.97 354.65
  Q 45.37 368.29 51.74 381.16
  Q 55.61 388.98 62.05 396.14
  Q 73.40 408.77 90.31 415.03
  C 103.27 419.82 117.01 421.43 130.91 421.47
  Q 174.75 421.61 220.36 421.52
  Q 221.06 421.52 221.06 422.21
  L 221.06 437.29
  A 0.68 0.68 0.0 0 1 220.38 437.97
  Q 171.30 437.97 120.64 437.97
  C 89.72 437.98 60.40 429.89 42.02 405.19
  C 33.70 394.00 28.12 379.87 25.76 366.12
  Q 25.23 363.04 24.66 360.18
  Q 24.08 357.26 23.86 354.41
  Q 23.04 344.02 23.04 333.72
  Q 23.00 228.85 23.05 123.57
  Q 23.06 114.03 23.85 103.86
  Q 24.09 100.74 24.70 97.49
  Q 25.32 94.25 25.92 91.10
  C 31.78 60.44 49.11 36.46 79.16 26.23
  Q 87.93 23.24 97.39 21.77
  Q 109.88 19.82 121.75 19.82
  Q 171.24 19.83 220.71 19.85
  A 0.35 0.35 0.0 0 1 221.06 20.20
  L 221.07 36.23
  Q 221.07 36.81 220.50 36.81
  C 188.30 36.75 156.05 36.48 123.86 36.91
  Q 120.39 36.96 116.69 37.50
  Q 112.70 38.09 108.66 38.65
  Q 94.37 40.60 81.42 47.33
  Q 67.40 54.62 58.14 66.97
  Z"
/>
<path fill="#0d0c0a" d="
  M 233.39 418.89
  Q 233.98 417.55 234.88 416.43
  C 244.23 404.78 257.80 397.03 271.55 391.56
  Q 291.47 383.63 305.25 377.25
  Q 315.26 372.61 324.95 366.24
  C 339.63 356.59 351.25 343.59 358.85 327.79
  C 364.61 315.81 368.37 301.88 368.91 288.01
  C 369.77 266.13 363.18 246.36 352.01 227.71
  Q 344.31 214.85 334.79 200.54
  Q 328.72 191.43 323.38 181.29
  Q 321.52 177.75 320.65 174.52
  Q 319.74 171.14 318.72 168.08
  Q 315.49 158.33 317.30 146.67
  Q 321.75 118.03 346.47 104.04
  C 352.91 100.40 359.40 97.15 366.29 94.47
  Q 384.20 87.49 398.50 80.77
  Q 410.23 75.27 420.37 68.22
  Q 421.05 67.75 421.38 68.51
  Q 426.02 79.28 428.44 91.81
  Q 430.52 102.53 430.75 113.00
  Q 430.97 123.03 430.98 133.00
  Q 431.03 233.94 430.98 324.01
  Q 430.97 341.77 430.87 344.00
  Q 430.35 356.33 427.99 367.70
  C 420.20 405.29 396.61 428.88 358.97 435.52
  Q 349.08 437.26 339.61 437.63
  Q 338.45 437.68 320.39 437.69
  Q 276.90 437.72 233.66 437.67
  Q 233.04 437.66 233.04 437.05
  L 233.04 420.54
  Q 233.04 419.68 233.39 418.89
  Z
  M 388.90 110.76
  A 3.01 3.01 0.0 0 0 385.89 107.75
  A 3.01 3.01 0.0 0 0 382.88 110.76
  A 3.01 3.01 0.0 0 0 385.89 113.77
  A 3.01 3.01 0.0 0 0 388.90 110.76
  Z
  M 336.2320 142.2385
  A 1.50 1.34 92.6 0 0 337.6386 140.8008
  A 1.50 1.34 92.6 0 0 336.3680 139.2415
  A 1.50 1.34 92.6 0 0 334.9614 140.6792
  A 1.50 1.34 92.6 0 0 336.2320 142.2385
  Z
  M 369.98 148.02
  A 3.01 3.01 0.0 0 0 366.97 145.01
  A 3.01 3.01 0.0 0 0 363.96 148.02
  A 3.01 3.01 0.0 0 0 366.97 151.03
  A 3.01 3.01 0.0 0 0 369.98 148.02
  Z
  M 335.50 163.72
  A 1.41 1.41 0.0 0 0 334.09 162.31
  A 1.41 1.41 0.0 0 0 332.68 163.72
  A 1.41 1.41 0.0 0 0 334.09 165.13
  A 1.41 1.41 0.0 0 0 335.50 163.72
  Z
  M 343.6172 167.6985
  A 1.54 1.35 87.5 0 0 344.8987 166.1011
  A 1.54 1.35 87.5 0 0 343.4828 164.6215
  A 1.54 1.35 87.5 0 0 342.2013 166.2189
  A 1.54 1.35 87.5 0 0 343.6172 167.6985
  Z
  M 402.1677 171.2685
  A 1.38 1.18 82.6 0 0 403.1602 169.7480
  A 1.38 1.18 82.6 0 0 401.8123 168.5315
  A 1.38 1.18 82.6 0 0 400.8198 170.0520
  A 1.38 1.18 82.6 0 0 402.1677 171.2685
  Z
  M 370.8200 195.9900
  A 1.31 1.09 90.0 0 0 371.9100 194.6800
  A 1.31 1.09 90.0 0 0 370.8200 193.3700
  A 1.31 1.09 90.0 0 0 369.7300 194.6800
  A 1.31 1.09 90.0 0 0 370.8200 195.9900
  Z
  M 402.32 195.63
  A 1.36 1.36 0.0 0 0 400.96 194.27
  A 1.36 1.36 0.0 0 0 399.60 195.63
  A 1.36 1.36 0.0 0 0 400.96 196.99
  A 1.36 1.36 0.0 0 0 402.32 195.63
  Z
  M 375.5203 197.2796
  A 1.24 0.95 88.6 0 0 376.4397 196.0168
  A 1.24 0.95 88.6 0 0 375.4597 194.8004
  A 1.24 0.95 88.6 0 0 374.5403 196.0632
  A 1.24 0.95 88.6 0 0 375.5203 197.2796
  Z
  M 394.2359 200.2187
  A 1.53 1.26 92.4 0 0 395.5589 198.7428
  A 1.53 1.26 92.4 0 0 394.3641 197.1613
  A 1.53 1.26 92.4 0 0 393.0411 198.6372
  A 1.53 1.26 92.4 0 0 394.2359 200.2187
  Z
  M 377.6130 210.8169
  A 1.48 1.26 74.6 0 0 378.4348 209.0554
  A 1.48 1.26 74.6 0 0 376.8270 207.9631
  A 1.48 1.26 74.6 0 0 376.0052 209.7246
  A 1.48 1.26 74.6 0 0 377.6130 210.8169
  Z
  M 397.3970 212.0133
  A 1.52 1.30 95.4 0 0 398.8342 210.6223
  A 1.52 1.30 95.4 0 0 397.6830 208.9867
  A 1.52 1.30 95.4 0 0 396.2458 210.3777
  A 1.52 1.30 95.4 0 0 397.3970 212.0133
  Z
  M 381.4446 216.4605
  A 1.04 1.04 0.0 0 0 380.3690 215.4574
  L 380.1691 215.4644
  A 1.04 1.04 0.0 0 0 379.1660 216.5400
  L 379.1954 217.3795
  A 1.04 1.04 0.0 0 0 380.2710 218.3826
  L 380.4709 218.3756
  A 1.04 1.04 0.0 0 0 381.4740 217.3000
  L 381.4446 216.4605
  Z
  M 377.8960 221.4511
  A 1.34 1.19 96.6 0 0 379.2321 220.2568
  A 1.34 1.19 96.6 0 0 378.2040 218.7889
  A 1.34 1.19 96.6 0 0 376.8679 219.9832
  A 1.34 1.19 96.6 0 0 377.8960 221.4511
  Z
  M 418.31 239.93
  A 3.01 3.01 0.0 0 0 415.30 236.92
  A 3.01 3.01 0.0 0 0 412.29 239.93
  A 3.01 3.01 0.0 0 0 415.30 242.94
  A 3.01 3.01 0.0 0 0 418.31 239.93
  Z
  M 412.7636 268.4698
  A 1.50 1.26 89.1 0 0 413.9998 266.9502
  A 1.50 1.26 89.1 0 0 412.7164 265.4702
  A 1.50 1.26 89.1 0 0 411.4802 266.9898
  A 1.50 1.26 89.1 0 0 412.7636 268.4698
  Z
  M 388.4846 294.5400
  A 1.54 1.33 90.2 0 0 389.8200 293.0046
  A 1.54 1.33 90.2 0 0 388.4954 291.4600
  A 1.54 1.33 90.2 0 0 387.1600 292.9954
  A 1.54 1.33 90.2 0 0 388.4846 294.5400
  Z
  M 425.69 308.92
  A 3.01 3.01 0.0 0 0 422.68 305.91
  A 3.01 3.01 0.0 0 0 419.67 308.92
  A 3.01 3.01 0.0 0 0 422.68 311.93
  A 3.01 3.01 0.0 0 0 425.69 308.92
  Z
  M 382.41 346.63
  A 1.31 1.31 0.0 0 0 381.10 345.32
  A 1.31 1.31 0.0 0 0 379.79 346.63
  A 1.31 1.31 0.0 0 0 381.10 347.94
  A 1.31 1.31 0.0 0 0 382.41 346.63
  Z
  M 353.96 356.89
  A 3.01 3.01 0.0 0 0 350.95 353.88
  A 3.01 3.01 0.0 0 0 347.94 356.89
  A 3.01 3.01 0.0 0 0 350.95 359.90
  A 3.01 3.01 0.0 0 0 353.96 356.89
  Z
  M 309.4941 396.0387
  A 1.53 1.32 87.6 0 0 310.7488 394.4547
  A 1.53 1.32 87.6 0 0 309.3659 392.9813
  A 1.53 1.32 87.6 0 0 308.1112 394.5653
  A 1.53 1.32 87.6 0 0 309.4941 396.0387
  Z"
/>
<ellipse fill="#ffffff" cx="0.00" cy="0.00" transform="translate(260.67,77.80) rotate(86.4)" rx="1.50" ry="1.36"/>
<circle fill="#ffffff" cx="252.84" cy="84.56" r="3.04"/>
<ellipse fill="#ffffff" cx="0.00" cy="0.00" transform="translate(270.61,89.12) rotate(83.9)" rx="1.53" ry="1.34"/>
<circle fill="#ffffff" cx="260.93" cy="93.85" r="1.45"/>
<circle fill="#ffffff" cx="385.89" cy="110.76" r="3.01"/>
<ellipse fill="#ffffff" cx="0.00" cy="0.00" transform="translate(336.30,140.74) rotate(92.6)" rx="1.50" ry="1.34"/>
<circle fill="#ffffff" cx="366.97" cy="148.02" r="3.01"/>
<circle fill="#ffffff" cx="250.96" cy="148.58" r="1.37"/>
<circle fill="#ffffff" cx="334.09" cy="163.72" r="1.41"/>
<ellipse fill="#ffffff" cx="0.00" cy="0.00" transform="translate(343.55,166.16) rotate(87.5)" rx="1.54" ry="1.35"/>
<ellipse fill="#ffffff" cx="0.00" cy="0.00" transform="translate(401.99,169.90) rotate(82.6)" rx="1.38" ry="1.18"/>
<path fill="#0d0c0a" d="
  M 81.63 184.32
  A 0.38 0.38 0.0 0 1 82.01 183.94
  L 94.09 183.96
  A 10.83 10.72 -89.9 0 1 104.79 194.81
  L 104.75 215.21
  A 10.83 10.72 -89.9 0 1 94.01 226.02
  L 81.93 226.00
  A 0.38 0.38 0.0 0 1 81.55 225.62
  L 81.63 184.32
  Z
  M 89.06 189.65
  L 89.06 220.37
  A 0.40 0.40 0.0 0 0 89.46 220.77
  L 92.13 220.77
  A 5.04 4.91 -90.0 0 0 97.04 215.73
  L 97.04 194.29
  A 5.04 4.91 90.0 0 0 92.13 189.25
  L 89.46 189.25
  A 0.40 0.40 0.0 0 0 89.06 189.65
  Z"
/>
<path fill="#0d0c0a" d="
  M 123.67 216.04
  L 117.12 216.05
  A 0.43 0.43 0.0 0 0 116.70 216.41
  L 115.09 225.63
  A 0.43 0.43 0.0 0 1 114.67 225.99
  L 108.44 226.00
  A 0.43 0.43 0.0 0 1 108.02 225.49
  L 116.20 184.35
  A 0.43 0.43 0.0 0 1 116.62 184.00
  L 124.14 184.00
  A 0.43 0.43 0.0 0 1 124.56 184.35
  L 132.79 225.47
  A 0.43 0.43 0.0 0 1 132.36 225.99
  L 126.14 225.98
  A 0.43 0.43 0.0 0 1 125.72 225.63
  L 124.09 216.40
  A 0.43 0.43 0.0 0 0 123.67 216.04
  Z
  M 120.19 194.83
  L 117.71 210.80
  Q 117.65 211.20 118.06 211.20
  L 122.92 211.18
  Q 123.29 211.18 123.23 210.82
  L 120.63 194.83
  A 0.22 0.22 0.0 0 0 120.19 194.83
  Z"
/>
<path fill="#0d0c0a" d="
  M 144.88 207.54
  L 144.88 225.79
  Q 144.88 225.99 144.68 225.99
  L 137.45 225.99
  Q 137.16 225.99 137.16 225.71
  L 137.17 184.56
  Q 137.17 184.11 137.62 184.09
  Q 148.03 183.67 152.53 184.38
  C 159.82 185.53 160.92 191.86 160.21 198.17
  Q 159.67 203.03 155.78 205.04
  Q 155.33 205.28 155.46 205.77
  L 161.05 225.77
  A 0.17 0.17 0.0 0 1 160.89 225.99
  L 153.62 225.98
  Q 153.45 225.98 153.40 225.81
  L 148.68 207.38
  Q 148.52 206.75 147.88 206.75
  L 145.71 206.72
  Q 144.88 206.71 144.88 207.54
  Z
  M 144.87 189.30
  L 144.87 201.64
  A 0.29 0.29 0.0 0 0 145.16 201.93
  L 148.12 201.93
  A 5.05 4.82 0.0 0 0 153.17 197.11
  L 153.17 193.83
  A 5.05 4.82 -0.0 0 0 148.12 189.01
  L 145.16 189.01
  A 0.29 0.29 0.0 0 0 144.87 189.30
  Z"
/>
<path fill="#0d0c0a" d="
  M 173.87 201.03
  Q 173.87 202.29 174.39 201.14
  L 181.98 184.25
  A 0.33 0.32 10.3 0 1 182.26 184.06
  Q 185.71 183.84 189.18 184.15
  A 0.12 0.12 0.0 0 1 189.28 184.31
  L 181.62 202.22
  A 1.19 1.18 46.4 0 0 181.60 203.11
  L 189.90 225.02
  Q 190.27 225.99 189.23 225.99
  L 183.48 225.99
  A 1.21 1.20 79.9 0 1 182.35 225.20
  L 175.94 207.58
  Q 175.74 207.02 175.35 207.48
  Q 173.82 209.30 173.84 211.66
  Q 173.93 218.84 173.84 225.81
  Q 173.83 225.99 173.66 225.99
  L 166.47 225.99
  Q 166.21 225.99 166.21 225.72
  L 166.20 184.28
  Q 166.20 184.01 166.47 184.01
  L 173.52 184.00
  Q 173.88 184.00 173.88 184.36
  L 173.87 201.03
  Z"
/>
<path fill="#ffffff" d="
  M 144.87 189.30
  A 0.29 0.29 0.0 0 1 145.16 189.01
  L 148.12 189.01
  A 5.05 4.82 -0.0 0 1 153.17 193.83
  L 153.17 197.11
  A 5.05 4.82 -0.0 0 1 148.12 201.93
  L 145.16 201.93
  A 0.29 0.29 0.0 0 1 144.87 201.64
  L 144.87 189.30
  Z"
/>
<path fill="#ffffff" d="
  M 89.06 189.65
  A 0.40 0.40 0.0 0 1 89.46 189.25
  L 92.13 189.25
  A 5.04 4.91 90.0 0 1 97.04 194.29
  L 97.04 215.73
  A 5.04 4.91 90.0 0 1 92.13 220.77
  L 89.46 220.77
  A 0.40 0.40 0.0 0 1 89.06 220.37
  L 89.06 189.65
  Z"
/>
<ellipse fill="#ffffff" cx="0.00" cy="0.00" transform="translate(370.82,194.68) rotate(90.0)" rx="1.31" ry="1.09"/>
<circle fill="#ffffff" cx="400.96" cy="195.63" r="1.36"/>
<path fill="#ffffff" d="
  M 117.71 210.80
  L 120.19 194.83
  A 0.22 0.22 0.0 0 1 120.63 194.83
  L 123.23 210.82
  Q 123.29 211.18 122.92 211.18
  L 118.06 211.20
  Q 117.65 211.20 117.71 210.80
  Z"
/>
<ellipse fill="#ffffff" cx="0.00" cy="0.00" transform="translate(375.49,196.04) rotate(88.6)" rx="1.24" ry="0.95"/>
<ellipse fill="#ffffff" cx="0.00" cy="0.00" transform="translate(394.30,198.69) rotate(92.4)" rx="1.53" ry="1.26"/>
<ellipse fill="#ffffff" cx="0.00" cy="0.00" transform="translate(262.55,207.12) rotate(82.1)" rx="1.54" ry="1.37"/>
<ellipse fill="#ffffff" cx="0.00" cy="0.00" transform="translate(377.22,209.39) rotate(74.6)" rx="1.48" ry="1.26"/>
<ellipse fill="#ffffff" cx="0.00" cy="0.00" transform="translate(397.54,210.50) rotate(95.4)" rx="1.52" ry="1.30"/>
<rect fill="#ffffff" x="-1.14" y="-1.46" transform="translate(380.32,216.92) rotate(-2.0)" width="2.28" height="2.92" rx="1.04"/>
<ellipse fill="#ffffff" cx="0.00" cy="0.00" transform="translate(378.05,220.12) rotate(96.6)" rx="1.34" ry="1.19"/>
<path fill="#667ce0" d="
  M 88.83 242.58
  C 86.11 245.89 88.31 249.96 91.27 252.27
  Q 96.43 256.30 99.63 260.17
  C 104.05 265.51 104.15 276.49 95.73 278.64
  Q 93.69 279.16 90.70 279.08
  C 85.72 278.95 81.67 275.55 81.02 270.48
  Q 80.84 269.02 80.53 267.66
  Q 80.25 266.47 81.45 266.23
  L 86.08 265.28
  Q 87.21 265.05 87.15 266.20
  C 87.00 269.54 88.51 274.13 92.89 273.14
  C 95.43 272.56 95.64 269.58 95.14 267.53
  Q 94.45 264.74 92.32 262.81
  C 87.10 258.07 80.41 254.48 80.53 246.33
  Q 80.64 239.20 86.42 236.97
  C 90.76 235.30 97.08 235.66 99.72 239.99
  Q 101.55 242.99 101.87 246.93
  Q 101.92 247.60 101.26 247.70
  L 95.78 248.54
  Q 95.15 248.64 95.22 248.01
  Q 95.33 247.10 95.18 246.03
  Q 94.45 240.90 89.63 242.08
  Q 89.15 242.20 88.83 242.58
  Z"
/>
<path fill="#667ce0" d="
  M 122.99 259.99
  L 115.10 260.00
  A 0.35 0.35 0.0 0 0 114.75 260.35
  L 114.75 278.63
  A 0.35 0.35 0.0 0 1 114.40 278.98
  L 107.47 278.99
  A 0.35 0.35 0.0 0 1 107.12 278.64
  L 107.13 237.02
  A 0.35 0.35 0.0 0 1 107.48 236.67
  L 114.40 236.66
  A 0.35 0.35 0.0 0 1 114.75 237.01
  L 114.75 253.99
  A 0.35 0.35 0.0 0 0 115.10 254.34
  L 122.99 254.34
  A 0.35 0.35 0.0 0 0 123.34 253.99
  L 123.34 237.01
  A 0.35 0.35 0.0 0 1 123.69 236.66
  L 130.62 236.67
  A 0.35 0.35 0.0 0 1 130.97 237.02
  L 130.96 278.64
  A 0.35 0.35 0.0 0 1 130.61 278.99
  L 123.68 278.98
  A 0.35 0.35 0.0 0 1 123.33 278.63
  L 123.34 260.34
  A 0.35 0.35 0.0 0 0 122.99 259.99
  Z"
/>
<path fill="#667ce0" d="
  M 157.90 279.00
  L 152.13 278.99
  A 0.30 0.30 0.0 0 1 151.83 278.69
  L 151.82 236.95
  A 0.30 0.30 0.0 0 1 152.12 236.65
  L 156.91 236.70
  A 0.30 0.30 0.0 0 1 157.19 236.88
  L 166.79 259.59
  A 0.30 0.30 0.0 0 0 167.36 259.48
  L 167.28 236.96
  A 0.30 0.30 0.0 0 1 167.58 236.66
  L 173.25 236.67
  A 0.30 0.30 0.0 0 1 173.55 236.97
  L 173.55 278.68
  A 0.30 0.30 0.0 0 1 173.25 278.98
  L 168.79 278.98
  A 0.30 0.30 0.0 0 1 168.51 278.79
  L 158.71 254.55
  A 0.30 0.30 0.0 0 0 158.13 254.66
  L 158.20 278.70
  A 0.30 0.30 0.0 0 1 157.90 279.00
  Z"
/>
<rect fill="#667ce0" x="137.85" y="236.69" width="7.30" height="42.32" rx="0.32"/>
<path fill="#667ce0" d="
  M 188.05 273.56
  L 197.46 273.54
  A 0.40 0.40 0.0 0 1 197.86 273.95
  L 197.80 278.59
  A 0.40 0.40 0.0 0 1 197.40 278.98
  L 180.44 278.99
  A 0.40 0.40 0.0 0 1 180.04 278.59
  L 180.04 237.07
  A 0.40 0.40 0.0 0 1 180.44 236.67
  L 197.31 236.67
  A 0.40 0.40 0.0 0 1 197.71 237.07
  L 197.69 241.57
  A 0.40 0.40 0.0 0 1 197.29 241.97
  L 188.07 242.00
  A 0.40 0.40 0.0 0 0 187.67 242.40
  L 187.66 253.59
  A 0.40 0.40 0.0 0 0 188.06 253.99
  L 195.19 254.02
  A 0.40 0.40 0.0 0 1 195.59 254.42
  L 195.54 258.80
  A 0.40 0.40 0.0 0 1 195.14 259.20
  L 188.08 259.20
  A 0.40 0.40 0.0 0 0 187.68 259.60
  L 187.65 273.16
  A 0.40 0.40 0.0 0 0 188.05 273.56
  Z"
/>
<circle fill="#ffffff" cx="415.30" cy="239.93" r="3.01"/>
<circle fill="#ffffff" cx="303.76" cy="243.98" r="1.47"/>
<ellipse fill="#ffffff" cx="0.00" cy="0.00" transform="translate(289.04,251.01) rotate(90.0)" rx="1.47" ry="1.28"/>
<ellipse fill="#ffffff" cx="0.00" cy="0.00" transform="translate(305.46,257.36) rotate(87.7)" rx="1.53" ry="1.36"/>
<rect fill="#ffffff" x="-1.28" y="-2.57" transform="translate(309.13,263.80) rotate(25.4)" width="2.56" height="5.14" rx="0.97"/>
<ellipse fill="#ffffff" cx="0.00" cy="0.00" transform="translate(412.74,266.97) rotate(89.1)" rx="1.50" ry="1.26"/>
<circle fill="#ffffff" cx="262.07" cy="267.19" r="1.36"/>
<ellipse fill="#ffffff" cx="0.00" cy="0.00" transform="translate(388.49,293.00) rotate(90.2)" rx="1.54" ry="1.33"/>
<ellipse fill="#ffffff" cx="0.00" cy="0.00" transform="translate(253.71,293.10) rotate(89.9)" rx="1.32" ry="1.08"/>
<ellipse fill="#ffffff" cx="0.00" cy="0.00" transform="translate(255.40,298.42) rotate(85.3)" rx="1.43" ry="1.14"/>
<ellipse fill="#ffffff" cx="0.00" cy="0.00" transform="translate(282.12,300.85) rotate(89.7)" rx="1.44" ry="1.29"/>
<circle fill="#ffffff" cx="422.68" cy="308.92" r="3.01"/>
<circle fill="#ffffff" cx="300.61" cy="309.59" r="1.38"/>
<circle fill="#ffffff" cx="256.24" cy="310.34" r="1.45"/>
<path fill="#ffffff" d="
  M 246.06 314.24
  A 0.73 0.73 0.0 0 1 247.42 313.88
  Q 247.89 314.72 247.71 315.72
  Q 247.56 316.53 246.75 316.64
  Q 246.06 316.73 246.06 316.04
  L 246.06 314.24
  Z"
/>
<ellipse fill="#ffffff" cx="0.00" cy="0.00" transform="translate(256.49,326.41) rotate(88.7)" rx="1.56" ry="1.35"/>
<circle fill="#ffffff" cx="381.10" cy="346.63" r="1.31"/>
<circle fill="#ffffff" cx="350.95" cy="356.89" r="3.01"/>
<ellipse fill="#ffffff" cx="0.00" cy="0.00" transform="translate(309.43,394.51) rotate(87.6)" rx="1.53" ry="1.32"/>
</svg>
